<svg xmlns="http://www.w3.org/2000/svg" fill="currentColor">
  <symbol id="home" viewBox="0 0 24 24" fill="currentColor">
    <path d="M0 0h24v24H0V0z" fill="none" />
    <path d="M12 5.69l5 4.5V18h-2v-6H9v6H7v-7.81l5-4.5M12 3L2 12h3v8h6v-6h2v6h6v-8h3L12 3z" />
  </symbol>
  <symbol id="search" viewBox="0 0 24 24">
    <path d="M0 0h24v24H0V0z" fill="none" />
    <path
      d="M15.5 14h-.79l-.28-.27C15.41 12.59 16 11.11 16 9.5 16 5.91 13.09 3 9.5 3S3 5.91 3 9.5 5.91 16 9.5 16c1.61 0 3.09-.59 4.23-1.57l.27.28v.79l5 4.99L20.49 19l-4.99-5zm-6 0C7.01 14 5 11.99 5 9.5S7.01 5 9.5 5 14 7.01 14 9.5 11.99 14 9.5 14z" />
  </symbol>

  <symbol id="collection" viewBox="0 0 24 24">
    <path d="M0 0h24v24H0V0z" fill="none" />
    <path
      d="M20 2H8c-1.1 0-2 .9-2 2v12c0 1.1.9 2 2 2h12c1.1 0 2-.9 2-2V4c0-1.1-.9-2-2-2zm0 14H8V4h12v12zm-7.5-1c1.38 0 2.5-1.12 2.5-2.5V7h3V5h-4v5.51c-.42-.32-.93-.51-1.5-.51-1.38 0-2.5 1.12-2.5 2.5s1.12 2.5 2.5 2.5zM4 6H2v14c0 1.1.9 2 2 2h14v-2H4V6z" />
  </symbol>
  <symbol id="volume-off" viewBox="0 0 24 24">
    <path d="M0 0h24v24H0V0z" fill="none" />
    <path
      d="M4.34 2.93L2.93 4.34 7.29 8.7 7 9H3v6h4l5 5v-6.59l4.18 4.18c-.65.49-1.38.88-2.18 1.11v2.06c1.34-.3 2.57-.92 3.61-1.75l2.05 2.05 1.41-1.41L4.34 2.93zM10 15.17L7.83 13H5v-2h2.83l.88-.88L10 11.41v3.76zM19 12c0 .82-.15 1.61-.41 2.34l1.53 1.53c.56-1.17.88-2.48.88-3.87 0-4.28-2.99-7.86-7-8.77v2.06c2.89.86 5 3.54 5 6.71zm-7-8l-1.88 1.88L12 7.76zm4.5 8c0-1.77-1.02-3.29-2.5-4.03v1.79l2.48 2.48c.01-.08.02-.16.02-.24z" />
  </symbol>
  <symbol id="volume-up" viewBox="0 0 24 24">
    <path d="M0 0h24v24H0V0z" fill="none" />
    <path
      d="M3 9v6h4l5 5V4L7 9H3zm7-.17v6.34L7.83 13H5v-2h2.83L10 8.83zM16.5 12c0-1.77-1.02-3.29-2.5-4.03v8.05c1.48-.73 2.5-2.25 2.5-4.02zM14 3.23v2.06c2.89.86 5 3.54 5 6.71s-2.11 5.85-5 6.71v2.06c4.01-.91 7-4.49 7-8.77 0-4.28-2.99-7.86-7-8.77z" />
  </symbol>
  <symbol id="play" viewBox="0 0 24 24">
    <path d="M0 0h24v24H0V0z" fill="none" />
    <path d="M12 2C6.48 2 2 6.48 2 12s4.48 10 10 10 10-4.48 10-10S17.52 2 12 2zm-2 14.5v-9l6 4.5-6 4.5z" />
  </symbol>
  <symbol id="pause" viewBox="0 0 24 24">
    <g>
      <rect fill="none" height="24" width="24" />
      <rect fill="none" height="24" width="24" />
      <rect fill="none" height="24" width="24" />
    </g>
    <g>
      <path d="M12,2C6.48,2,2,6.48,2,12s4.48,10,10,10s10-4.48,10-10S17.52,2,12,2z M11,16H9V8h2V16z M15,16h-2V8h2V16z" />
    </g>
  </symbol>
  <symbol id="skip-prev" viewBox="0 0 24 24">
    <path d="M0 0h24v24H0V0z" fill="none" />
    <path d="M6 6h2v12H6zm3.5 6l8.5 6V6l-8.5 6zm6.5 2.14L12.97 12 16 9.86v4.28z" />
  </symbol>
  <symbol id="skip-next" viewBox="0 0 24 24">
    <path d="M0 0h24v24H0V0z" fill="none" />
    <path d="M6 18l8.5-6L6 6v12zm2-8.14L11.03 12 8 14.14V9.86zM16 6h2v12h-2z" />
  </symbol>
</svg>
